<?xml version="1.0" encoding="UTF-8"?>
<svg xmlns="http://www.w3.org/2000/svg" viewBox="0 0 313.89 373.74">
    <defs>
        <style>.cls-1{fill:#549442;}.cls-2{fill:#7cac41;}.cls-3{fill:#467b3a;}.cls-4{fill:#6e451b;}.cls-5,.cls-6{fill:#fff;}.cls-5{opacity:0.5;}</style>
    </defs>
    <title>olymist</title>
    <g id="plant">
        <path class="cls-1" d="M402,196.13s-29.32-35.32-67.28-17.52-60.23,14.49-68.81,12.87c5.2,17,53.86,46.49,95.69,28S402,196.13,402,196.13Z" transform="translate(-265.88 -173.6)" />
        <path class="cls-2" d="M402,196.13s-27.26-22.11-65.22-4.31-62.29,1.28-70.87-.34c5.2,17,53.86,46.49,95.69,28S402,196.13,402,196.13Z" transform="translate(-265.88 -173.6)" />
        <path class="cls-3" d="M419.16,245.59c-.43-3.3-3.77-13.82-4.66-17.83a113.33,113.33,0,0,0-3.59-12.82,69,69,0,0,0-6.35-13.61,38.89,38.89,0,0,0-11.19-12,31.68,31.68,0,0,0-3.78-2.13,28.14,28.14,0,0,0-4.11-1.53c-.7-.23-1.43-.36-2.14-.54s-1.45-.29-2.18-.36l-1.09-.12-1.09-.08-2.13-.14a86.08,86.08,0,0,0-17.06,1.14,147.05,147.05,0,0,0-16,3.65c-5.1,1.41-10,3-14.59,4.29A131.79,131.79,0,0,1,316,196.73a59.73,59.73,0,0,1-11.41,1.05,38.38,38.38,0,0,1-8.79-1.15,37.15,37.15,0,0,1-5.41-1.91l-1.84-.86,1.79,1c.58.33,1.34.63,2.23,1s1.94.73,3.12,1.15a39.37,39.37,0,0,0,8.88,1.52,55.12,55.12,0,0,0,11.66-.69,134.79,134.79,0,0,0,13.39-3c4.69-1.23,9.59-2.63,14.67-4a157.42,157.42,0,0,1,15.82-3.45,84.39,84.39,0,0,1,16.6-1.05l2.13.13,1,.07,1,.11c.68.06,1.34.22,2,.32s1.33.28,2,.49a27.21,27.21,0,0,1,3.81,1.41,29.51,29.51,0,0,1,3.52,2,33.26,33.26,0,0,1,6,5.17,46.07,46.07,0,0,1,4.72,6.17,72.37,72.37,0,0,1,6.48,13.18A109.93,109.93,0,0,1,413.37,228c1.93,7.93,4.32,16.24,4.88,21C418.53,251.3,419.6,248.88,419.16,245.59Z" transform="translate(-265.88 -173.6)" />
        <polygon class="cls-3" points="154.01 134.56 151.68 134.44 152.3 71.64 154.01 71.77 154.01 134.56" />
        <path class="cls-1" d="M444,196.08s33.12-31.78,68.82-9.8,58.22,21.19,66.92,20.55c-7.09,16.34-58.77,40.12-98.24,17S444,196.08,444,196.08Z" transform="translate(-265.88 -173.6)" />
        <path class="cls-2" d="M444,196.08c-2.38.08,19-20.9,64.33,4.35,33.45,18.62,62.71,7,71.41,6.4-7.09,16.34-58.77,40.12-98.24,17S444,196.08,444,196.08Z" transform="translate(-265.88 -173.6)" />
        <path class="cls-3" d="M418.34,249.22s-.09.61.16-.64.35-3.38.92-5.69.7-2.67,1.39-6.19c1-3.18,3.1-9.17,4.64-13a111.77,111.77,0,0,1,5.62-12.06,68.61,68.61,0,0,1,8.47-12.4,38.87,38.87,0,0,1,13-10.05,31.9,31.9,0,0,1,4.07-1.49,29.86,29.86,0,0,1,4.31-.85c.73-.11,1.46-.12,2.2-.18s1.47-.05,2.2,0l1.11.05,1.08.1,2.12.21a86.53,86.53,0,0,1,16.66,3.88,148.29,148.29,0,0,1,15.17,6.2c4.81,2.22,9.35,4.52,13.7,6.6a134,134,0,0,0,12.48,5.33A60.19,60.19,0,0,0,538.72,212a38.38,38.38,0,0,0,8.86.28,37.77,37.77,0,0,0,5.65-1l2-.56-1.93.66c-.62.24-1.43.41-2.36.66a32,32,0,0,1-3.27.62,38.72,38.72,0,0,1-9,.06,54.11,54.11,0,0,1-11.39-2.57A134.3,134.3,0,0,1,514.49,205c-4.43-2-9-4.16-13.83-6.32a161.79,161.79,0,0,0-15-6A84.28,84.28,0,0,0,469.4,189l-2.12-.22-1-.1-1-.05c-.68-.06-1.36,0-2.05,0s-1.36.07-2,.17a26.63,26.63,0,0,0-4,.76,29.11,29.11,0,0,0-3.8,1.37,33.88,33.88,0,0,0-6.79,4.12,46.11,46.11,0,0,0-5.65,5.32,72.83,72.83,0,0,0-8.54,12,111.16,111.16,0,0,0-5.86,11.8c-3.2,7.51-5.53,19.3-6.85,23.87-.66,2.28-.95-1.24-1.26,0S418.34,249.22,418.34,249.22Z" transform="translate(-265.88 -173.6)" />
    </g>
    <g id="pebbles">
        <circle class="cls-4" cx="150.46" cy="164.16" r="11" />
        <circle class="cls-4" cx="169.46" cy="176.16" r="11" />
        <circle class="cls-4" cx="169.46" cy="153.16" r="11" />
        <circle class="cls-4" cx="151.46" cy="142.16" r="11" />
        <circle class="cls-4" cx="130.46" cy="153.16" r="11" />
        <circle class="cls-4" cx="134.54" cy="175.16" r="11" />
        <circle class="cls-4" cx="151.46" cy="186.16" r="11" />
        <circle class="cls-4" cx="169.46" cy="193.37" r="11" />
        <circle class="cls-4" cx="130.46" cy="195.96" r="11" />
        <circle class="cls-4" cx="174.81" cy="142.93" r="11" />
        <circle class="cls-4" cx="132.51" cy="141.65" r="11" />
    </g>
    <g id="soil">
        <path class="cls-4" d="M421.52,300.59l5.44.06-1.29-2.26-1.56.78a1.51,1.51,0,0,0-1.06,2.56,6.31,6.31,0,0,0,4,1.66c2.29.11,8.7-3.18,9.85-.1a1.55,1.55,0,0,0,1.45,1.1l5.71-.14a1.5,1.5,0,0,0,0-3c-9.26-.85-18.52-1.84-27.83-2.1l-13.76-.35c-3.52-.1-6.59-.34-9.84,1.14-1.21.55-.81,2.44.36,2.74a75.21,75.21,0,0,0,29.72,1.71c1.91-.27,1.1-3.16-.79-2.89a71.6,71.6,0,0,1-28.14-1.71l.36,2.74c3.92-1.78,9.69-.7,14-.59,3.8.1,7.61.17,11.42.31,8.19.31,16.36,1.25,24.52,2v-3l-5.71.14,1.45,1.1a5,5,0,0,0-3.56-3.44c-3.52-1-8,3-11.07.56l-1.06,2.56a3.72,3.72,0,0,0,4.15-2.26,1.52,1.52,0,0,0-1.3-2.26l-5.44-.06c-1.93,0-1.93,3,0,3Z" transform="translate(-265.88 -173.6)" />
        <path class="cls-4" d="M413.55,298.82l-5.09-2a1.5,1.5,0,0,0-1.84,1.05,1.53,1.53,0,0,0,1,1.85l5.09,2a1.5,1.5,0,0,0,.8-2.89Z" transform="translate(-265.88 -173.6)" />
    </g>
    <g id="pod">
        <g id="pod-2" data-name="pod">
            <path d="M414.56,303.15c-10.08,0-20.3-.16-30.5.12-2.56.08-7.17,1.44-7.26,2.49-.39,5.35-1.4,12.13,1.34,15.75a17.13,17.13,0,0,1,3.75,8.4c1.05,8.46,1.83,16.94,2.59,25.43.47,5.27,1.14,10.58.87,15.84-.16,3.63-1.76,7.19-2.86,11.35h70.88c-1.21-5.32-3.29-9.89-3-14.3.8-13.81,2.42-27.59,4-41.33.2-1.67,2.06-3.13,3.09-4.73.64-1,1.6-2,1.64-3.06.18-5,.09-10.09.09-16.08H424.43m-40.32,20h14.63q1.26,24.13,2.47,47.58c-.64.53-.94,1-1.28,1-10.59,1.17-10.75,1.19-11.93-9.23C386.56,349.57,385.44,336.7,384.11,323Zm61.05,57c-9.16.25-18.33.13-27.5.13-9,0-17.92.14-26.87-.11-1.58,0-3.12-1.72-4.67-2.65,1.44-.78,2.88-2.26,4.34-2.27q27.5-.24,55,0c1.44,0,2.9,1.51,4.34,2.31C448.23,378.37,446.72,380,445.16,380.07ZM401.67,322.9h14.42v48.8H404.18C403.36,355.59,402.53,339.56,401.67,322.9Zm18.19,48.52V322.69H434c-.73,16.17-1.44,32.17-2.18,48.73Zm27.15.28H434.63c.82-16.27,1.6-32.25,2.42-48.82h14.63C450.14,339.11,448.61,355.08,447,371.7Zm9-65V318.9H379.65V306.67ZM421.53,301c0,.5-.55,1-1.86,1.44" transform="translate(-265.88 -173.6)" />
            <path d="M379.65,318.9V306.68h76.4V318.9Z" transform="translate(-265.88 -173.6)" />
            <path class="cls-5" d="M416.09,371.71h-11.9c-.83-16.12-1.66-32.15-2.52-48.81h14.42Z" transform="translate(-265.88 -173.6)" />
            <path class="cls-5" d="M419.87,322.69H434c-.72,16.17-1.44,32.18-2.18,48.72h-12Z" transform="translate(-265.88 -173.6)" />
            <path class="cls-5" d="M447,371.71H434.64c.81-16.27,1.6-32.27,2.41-48.83h14.64C450.14,339.12,448.61,355.07,447,371.71Z" transform="translate(-265.88 -173.6)" />
            <path class="cls-5" d="M398.74,323q1.26,24.15,2.47,47.57c-.64.53-.93,1-1.27,1-10.6,1.18-10.77,1.2-11.94-9.23-1.44-12.84-2.56-25.72-3.89-39.37Z" transform="translate(-265.88 -173.6)" />
            <path class="cls-6" d="M417.66,380.21c-9,0-17.92.13-26.86-.12-1.59,0-3.13-1.72-4.69-2.64,1.45-.8,2.89-2.27,4.35-2.28q27.48-.26,55,0c1.45,0,2.89,1.51,4.34,2.32-1.54.92-3.06,2.59-4.62,2.63C436,380.33,426.83,380.2,417.66,380.21Z" transform="translate(-265.88 -173.6)" />
            <path class="cls-6" d="M421.53,301c0,.5-.55,1-1.86,1.44" transform="translate(-265.88 -173.6)" />
            <rect x="110.42" y="129.68" width="7.76" height="10.73" />
            <rect x="121.51" y="197.16" width="60.86" height="2.74" />
        </g>
    </g>
    <g id="root">
        <path class="cls-4" d="M415.21,547.34a19.63,19.63,0,0,0,.59-2.15,45.55,45.55,0,0,0,1-6.21,59,59,0,0,0,0-9.73,69.45,69.45,0,0,0-2.14-12.43c-.26-1.13-.62-2.26-1-3.41s-.71-2.32-1.18-3.49l-1.35-3.57c-.48-1.21-1-2.43-1.46-3.69a142.85,142.85,0,0,1-5.17-16.11,106.4,106.4,0,0,1-3-17.82,91.06,91.06,0,0,1,.52-18.65A78.68,78.68,0,0,1,407,432c.58-1.39,1.08-2.86,1.63-4.27.25-.71.57-1.42.77-2.13s.45-1.41.67-2.12l.66-2.11c.21-.71.38-1.43.57-2.14.34-1.42.76-2.82,1.05-4.24s.59-2.82.89-4.21.49-2.79.73-4.16.44-2.74.63-4.09.41-2.68.54-4c.66-5.27,1-10.29,1.31-14.92s.42-8.89.52-12.67.15-7.06.18-9.78c.07-5.42.15-8.52.15-8.52s.09,3.1.25,8.52c.07,2.71.16,6,.19,9.79s0,8.05-.13,12.71-.43,9.7-1,15a149.62,149.62,0,0,1-2.51,16.66,104.19,104.19,0,0,1-5.27,17.33,77.94,77.94,0,0,0-4.82,17.65,88.78,88.78,0,0,0-.58,18.27,110.9,110.9,0,0,0,2.78,17.56,161.27,161.27,0,0,0,4.81,16c.44,1.26.92,2.49,1.37,3.71l1.29,3.64c.45,1.19.78,2.4,1.11,3.57s.69,2.32.92,3.47.55,2.26.73,3.37.37,2.19.54,3.24.22,2.09.33,3.1.12,2,.18,2.93a59.13,59.13,0,0,1-.38,9.82,41.16,41.16,0,0,1-1.25,6.19A21.17,21.17,0,0,1,415.21,547.34Z" transform="translate(-265.88 -173.6)" />
        <path class="cls-4" d="M368.43,419.89s.13-.13.36-.39.58-.62,1.06-1.05,1.08-.92,1.8-1.46a21,21,0,0,1,2.53-1.62c.49-.26,1-.54,1.54-.77l.84-.37.88-.3c.31-.1.61-.22.92-.3l1-.24a13.23,13.23,0,0,1,2-.34,21.23,21.23,0,0,1,2.13-.11c.73,0,1.46.11,2.2.18l2.18.48c.7.17,1.42.37,2.12.51,1.39.3,2.81.57,4.22.74s2.79.32,4.14.42c2.7.19,5.24.26,7.43.41,1.09.07,2.1.17,3,.3a23,23,0,0,1,2.29.44l.82.24.6.24.49.2-.51-.13-.61-.15-.84-.13a20.83,20.83,0,0,0-2.27-.2c-.88,0-1.87,0-3,0-2.17,0-4.72.11-7.46,0-.68,0-1.38-.05-2.09-.11s-1.42-.11-2.14-.2c-1.44-.16-2.9-.41-4.37-.71-.73-.16-1.42-.37-2.13-.54l-2.06-.48c-.69-.07-1.37-.16-2-.21a18.94,18.94,0,0,0-2,0,17,17,0,0,0-1.93.24l-.92.18c-.31.06-.6.16-.89.23l-.87.25-.82.3c-.55.18-1.05.42-1.54.63-1,.44-1.84.9-2.6,1.34s-1.39.88-1.91,1.25-.91.67-1.17.88Z" transform="translate(-265.88 -173.6)" />
        <path class="cls-4" d="M354.12,452.31a3.73,3.73,0,0,1,.53-.17,14,14,0,0,1,1.56-.29c.68-.09,1.5-.17,2.45-.24s2-.14,3.19-.16,2.44-.05,3.78,0,2.75,0,4.2.1,3,.11,4.49.2L379,452c1.54.09,3.09.19,4.61.25s3,.16,4.47.19l2.13,0c.69,0,1.37,0,2,0,1.32,0,2.57-.11,3.71-.21a27.31,27.31,0,0,0,3.08-.52,15.34,15.34,0,0,0,2.3-.73l.83-.35.59-.29.49-.26-.45.32-.55.37-.79.44a15.42,15.42,0,0,1-2.27,1c-.44.17-.94.28-1.46.44s-1.07.23-1.65.35a34.09,34.09,0,0,1-3.78.45c-1.34.09-2.76.15-4.23.14-.73,0-1.47,0-2.23,0s-1.51,0-2.28-.06c-1.53-.05-3.08-.13-4.64-.21l-4.62-.3-4.47-.32-4.18-.27-3.75-.19c-2.32-.09-4.25-.15-5.6-.09-.68,0-1.21.05-1.57.1A3.19,3.19,0,0,0,354.12,452.31Z" transform="translate(-265.88 -173.6)" />
        <path class="cls-4" d="M408,431.83s.71.7,2,1.88,3.16,2.83,5.5,4.69c1.17.92,2.45,1.91,3.85,2.88.69.51,1.43,1,2.17,1.47s1.52,1,2.34,1.41c.4.23.8.47,1.22.68l1.27.64.32.16.31.13c.22.09.45.2.67.28.44.14.86.3,1.33.42a29.17,29.17,0,0,0,5.83.85c2,.13,4,.15,6,.18s4,.07,5.89.17a41.48,41.48,0,0,1,10.3,1.66,23.2,23.2,0,0,1,3.84,1.56c.56.27,1,.58,1.51.83l1.22.81a15.81,15.81,0,0,1,1.58,1.28l.54.48-.58-.42c-.2-.14-.42-.32-.71-.5l-1-.62-1.26-.7c-.48-.21-1-.48-1.54-.7a27.74,27.74,0,0,0-3.86-1.27,34.53,34.53,0,0,0-4.75-.85c-1.71-.2-3.53-.3-5.42-.37s-3.85,0-5.85-.05-4.05,0-6.09-.14a29.61,29.61,0,0,1-6.08-.94c-.49-.13-1-.31-1.48-.49l-.67-.29-.35-.16-.33-.18-1.29-.68-1.24-.73c-.82-.47-1.58-1-2.34-1.51s-1.47-1-2.15-1.58c-1.38-1-2.62-2.11-3.75-3.11s-2.12-1.95-3-2.82-1.6-1.64-2.19-2.28-1.05-1.17-1.36-1.52Z" transform="translate(-265.88 -173.6)" />
        <path class="cls-4" d="M450.21,503.78l-.12,0-.38,0c-.33,0-.81,0-1.43.06-1.24,0-3,.19-5.12.28s-4.6.19-7.25.2c-1.33,0-2.7,0-4.09,0s-2.8-.09-4.21-.17-2.83-.23-4.21-.39l-1-.14-1-.18a19.65,19.65,0,0,1-2-.44c-.66-.15-1.28-.38-1.89-.57s-1.19-.46-1.74-.73a19.69,19.69,0,0,1-3-1.71c-.86-.61-1.6-1.22-2.25-1.75a12.83,12.83,0,0,0-1.76-1.25,3.94,3.94,0,0,0-1.31-.42l-.5,0,.51,0a3.81,3.81,0,0,1,1.42.26,43.7,43.7,0,0,1,4.33,2.58,22.66,22.66,0,0,0,3,1.44c.53.23,1.11.4,1.69.6s1.19.36,1.82.47a33.79,33.79,0,0,0,3.92.62c1.36.15,2.76.25,4.15.34s2.8.16,4.17.22l4.06.15,7.21.21c2.11.06,3.87.16,5.1.23.62,0,1.1.09,1.43.13a3.1,3.1,0,0,1,.37.07A.36.36,0,0,1,450.21,503.78Z" transform="translate(-265.88 -173.6)" />
        <path class="cls-4" d="M403.75,486.72s.11.17.28.5.41.83.65,1.48a20,20,0,0,1,.74,2.4c.12.47.22,1,.31,1.52s.14,1.11.2,1.7,0,1.23.05,1.87-.09,1.32-.14,2-.22,1.38-.39,2.09c-.09.36-.19.71-.29,1.07a10.28,10.28,0,0,1-.35,1.07,21.89,21.89,0,0,1-2.07,4.21c-.46.66-.88,1.37-1.37,2l-1.45,1.91L397,514.3c-1,1.24-2,2.43-2.85,3.61s-1.76,2.34-2.52,3.46c-.39.55-.71,1.12-1.05,1.66s-.61,1.07-.86,1.6a13.77,13.77,0,0,0-.62,1.54c-.08.25-.17.49-.24.73s-.1.48-.16.71-.08.45-.13.66,0,.43,0,.63l0,.59c0,.19,0,.36.05.53,0,.33.07.64.12.9l.18.65.15.55s-.07-.19-.22-.53l-.27-.63c-.09-.26-.14-.56-.22-.9,0-.18-.09-.36-.11-.55s0-.39,0-.6l0-.66c0-.23,0-.47.07-.71s0-.5.08-.76l.18-.78a13.22,13.22,0,0,1,.53-1.66c.22-.56.5-1.13.77-1.72s.62-1.17,1-1.76c.71-1.18,1.51-2.4,2.41-3.61s1.8-2.47,2.77-3.71,1.94-2.5,2.91-3.77l1.46-1.89c.5-.62.89-1.27,1.33-1.9a22.88,22.88,0,0,0,2.07-3.94c.29-.66.45-1.35.69-2s.31-1.33.46-2,.19-1.29.25-1.91.1-1.22.07-1.8,0-1.14-.07-1.66-.08-1-.15-1.5a21.1,21.1,0,0,0-.49-2.41A16.2,16.2,0,0,0,403.75,486.72Z" transform="translate(-265.88 -173.6)" />
        <path class="cls-4" d="M413,511.59a17.71,17.71,0,0,1,1.69.81c.52.28,1.16.64,1.86,1.08l1.11.72,1.19.84,1.26,1,1.3,1.09,1.32,1.21c.44.42.87.87,1.32,1.32.86.93,1.74,1.9,2.55,3,.42.51.8,1.06,1.19,1.6l.59.82.54.85,1.06,1.68c.35.55.69,1.12,1.05,1.64s.75,1,1.1,1.53l1.18,1.45c.4.46.83.88,1.22,1.33s.83.81,1.24,1.21.85.71,1.25,1.07l1.23.93a27,27,0,0,0,2.31,1.44,20.8,20.8,0,0,0,1.91.91,11,11,0,0,0,1.77.59s-.17,0-.49-.06a10.07,10.07,0,0,1-1.37-.29,16.23,16.23,0,0,1-2.06-.7c-.39-.16-.78-.36-1.22-.56s-.84-.46-1.3-.7-.89-.56-1.35-.87-.91-.67-1.37-1-.92-.77-1.37-1.19-.89-.87-1.32-1.33l-1.28-1.46c-.4-.52-.81-1.05-1.2-1.59s-.72-1.1-1.09-1.65-.71-1.11-1.07-1.67l-.52-.83-.56-.8c-.38-.53-.73-1.07-1.14-1.57-.78-1-1.58-2-2.39-2.94l-1.23-1.34-1.22-1.25-1.2-1.14-1.15-1c-.76-.65-1.46-1.24-2.1-1.74s-1.22-.92-1.7-1.26-.86-.6-1.13-.77Z" transform="translate(-265.88 -173.6)" />
        <path class="cls-4" d="M351.91,483.85s.88,0,2.41.19,3.71.41,6.31.83c1.3.2,2.71.43,4.19.71s3.05.57,4.66.92,3.28.69,5,1.09c.83.19,1.7.41,2.52.59s1.7.34,2.53.45a16.55,16.55,0,0,0,5,0,13,13,0,0,0,4.55-1.7c1.38-.83,2.64-1.82,3.88-2.74a19.72,19.72,0,0,1,3.72-2.31,11.93,11.93,0,0,1,3.53-1,15.21,15.21,0,0,1,2.8-.08,13.09,13.09,0,0,1,1.77.24l.63.11-.63,0c-.41,0-1,0-1.78,0a14,14,0,0,0-2.71.32,13.07,13.07,0,0,0-3.29,1.22,22.53,22.53,0,0,0-3.46,2.42,39.41,39.41,0,0,1-3.88,3,13.65,13.65,0,0,1-4.91,2,17.47,17.47,0,0,1-5.4.09,26.07,26.07,0,0,1-2.63-.5c-.89-.2-1.71-.41-2.55-.61l-4.92-1.21c-3.2-.77-6.18-1.46-8.75-2s-4.7-1.05-6.21-1.34S351.91,483.85,351.91,483.85Z" transform="translate(-265.88 -173.6)" />
        <path class="cls-4" d="M397.72,512.28a6.36,6.36,0,0,0-.63,1.2,12.3,12.3,0,0,0-.48,1.45c-.07.29-.12.6-.18.92s-.09.67-.13,1,0,.73,0,1.12,0,.79.05,1.19.08.83.16,1.26.15.85.25,1.29l.36,1.32.45,1.33c.33.89.72,1.78,1.12,2.69s.75,1.86,1.09,2.79.6,1.87.83,2.77.42,1.8.56,2.65a22,22,0,0,1,.29,2.4,18.53,18.53,0,0,1,.08,2c0,.6,0,1.13-.08,1.56a8.79,8.79,0,0,1-.21,1.35,13.29,13.29,0,0,0-.07-1.35c0-.43-.09-.94-.17-1.54s-.19-1.25-.33-2c-.07-.36-.14-.73-.24-1.11s-.17-.78-.28-1.19c-.2-.81-.46-1.66-.72-2.53s-.6-1.76-.92-2.67-.69-1.79-1.1-2.7-.77-1.84-1.11-2.78c-.15-.48-.3-.95-.43-1.42s-.21-1-.31-1.42-.13-.93-.18-1.39,0-.91-.06-1.34,0-.86,0-1.27.12-.8.18-1.18.16-.73.26-1.06.21-.64.33-.93a9.2,9.2,0,0,1,.74-1.42,6.07,6.07,0,0,1,.62-.82A3.45,3.45,0,0,1,397.72,512.28Z" transform="translate(-265.88 -173.6)" />
        <path class="cls-4" d="M403.46,459.26a2.5,2.5,0,0,0-.07.5,4.84,4.84,0,0,0,.21,1.37,7.71,7.71,0,0,0,.91,1.9,15.59,15.59,0,0,0,1.75,2.08,12.81,12.81,0,0,0,1.13,1.06c.41.35.83.72,1.29,1.06s.92.7,1.42,1,1,.71,1.54,1,1.08.69,1.6,1l1.74.94c.58.3,1.18.52,1.77.79s1.23.43,1.85.65,1.27.34,1.9.51,1.29.23,1.94.33c1.3.15,2.58.27,3.86.31s2.51.11,3.68.21l1.72.2c.55.12,1.08.22,1.59.34l1.42.44,1.22.54a8.05,8.05,0,0,1,1,.56c.31.19.6.35.85.52.95.72,1.47,1.15,1.47,1.15s-.6-.33-1.61-.92l-.88-.41a10.4,10.4,0,0,0-1-.43l-1.23-.38-1.4-.3c-.49-.08-1-.13-1.54-.2s-1.1-.07-1.67-.09c-1.16,0-2.38,0-3.67,0a36.2,36.2,0,0,1-4-.2c-.68-.09-1.36-.2-2-.32s-1.36-.3-2-.52-1.33-.42-2-.71-1.29-.56-1.88-.87l-1.72-1c-.6-.37-1.1-.73-1.64-1.09s-1-.74-1.53-1.11a17.87,17.87,0,0,1-1.4-1.15,16.09,16.09,0,0,1-1.27-1.18c-.4-.38-.75-.8-1.09-1.19a13,13,0,0,1-1.6-2.36,8.32,8.32,0,0,1-.74-2.1,4.48,4.48,0,0,1,0-1.45A2,2,0,0,1,403.46,459.26Z" transform="translate(-265.88 -173.6)" />
        <path class="cls-4" d="M415.84,400.32l2,1.14,5.26,3.05,7.39,4.38,8.44,5.05,2.15,1.26a22.24,22.24,0,0,0,2.16,1.12,21.28,21.28,0,0,0,4.51,1.43c1.52.32,3,.45,4.5.61a33.25,33.25,0,0,1,4.14.59,13.14,13.14,0,0,1,3.32,1.21,12.74,12.74,0,0,1,2.21,1.51,10.81,10.81,0,0,1,1.22,1.19l.4.45-.46-.39-.56-.45c-.23-.17-.48-.37-.79-.57a11.85,11.85,0,0,0-2.28-1.24,14.67,14.67,0,0,0-3.26-.89c-1.24-.18-2.6-.27-4.07-.34a37.72,37.72,0,0,1-4.66-.47,19.79,19.79,0,0,1-4.81-1.44,20.25,20.25,0,0,1-2.28-1.15l-2.17-1.3c-1.43-.88-2.87-1.74-4.26-2.63l-4.09-2.59c-2.63-1.71-5.08-3.33-7.16-4.74s-3.78-2.62-5-3.45Z" transform="translate(-265.88 -173.6)" />
    </g>
</svg>
